<svg xmlns="http://www.w3.org/2000/svg" viewBox="0 0 1084.16 166.63"><defs><style>.cls-1{fill:#1d1d1b;}</style></defs><title>SVG_Asset 1</title><g id="Layer_2" data-name="Layer 2"><g id="Layer_1-2" data-name="Layer 1"><path class="cls-1" d="M1078.12,6.53a20.68,20.68,0,0,0-29.17,0,19.86,19.86,0,0,0-6,14.57,20.05,20.05,0,0,0,6,14.65,20.59,20.59,0,0,0,29.22,0,20,20,0,0,0,6-14.65A19.79,19.79,0,0,0,1078.12,6.53Zm-2.06,27.26a17.72,17.72,0,0,1-25.14,0,17.42,17.42,0,0,1-5.15-12.66A17.18,17.18,0,0,1,1051,8.56a17.66,17.66,0,0,1,25.11,0,17.18,17.18,0,0,1,5.18,12.57A17.37,17.37,0,0,1,1076.06,33.79Z"/><path class="cls-1" d="M1072.49,30.92c0-.61-.06-1.16-.06-1.69V27.57a6.16,6.16,0,0,0-1.23-3.51,5.47,5.47,0,0,0-3.89-2.22,8.68,8.68,0,0,0,3.28-1.09,5,5,0,0,0,2.21-4.48c0-2.85-1.17-4.77-3.51-5.74a17.19,17.19,0,0,0-6.19-.82h-7.93V32.38h4V23.46h3.15a9.66,9.66,0,0,1,4.44.73q2.14,1.26,2.14,5.19v1.79l.09.73a1.58,1.58,0,0,0,0,.25l.06.23h3.74l-.14-.28A3.83,3.83,0,0,1,1072.49,30.92Zm-5.91-10.78a10.81,10.81,0,0,1-3.81.51h-3.61V12.44h3.41a10.46,10.46,0,0,1,4.84.84c1,.56,1.51,1.67,1.51,3.32A3.48,3.48,0,0,1,1066.58,20.14Z"/><path class="cls-1" d="M415.78,1.07a2.3,2.3,0,0,0-1.93-1l-57.4,0a2.3,2.3,0,0,0-2.1,1.38l-71.45,162a2.29,2.29,0,0,0,.17,2.18,2.33,2.33,0,0,0,1.94,1l57.21,0a2.31,2.31,0,0,0,2.11-1.37L416,3.26A2.31,2.31,0,0,0,415.78,1.07Z"/><path class="cls-1" d="M591.21,122.37l-112.76,0L531,3.27a2.31,2.31,0,0,0-.17-2.19,2.32,2.32,0,0,0-1.93-1L471.47,0a2.32,2.32,0,0,0-2.11,1.39c0,.06-12.69,29.77-25.6,59.81s-26,60.5-26.69,62a48.18,48.18,0,0,0-4.61,19.47c0,7,2.11,13,6.1,17.28s9.74,6.65,16.49,6.65h138.7a2.31,2.31,0,0,0,2.11-1.38l17.46-39.62a2.3,2.3,0,0,0-2.11-3.23Z"/><path class="cls-1" d="M796.63,122.37l-112.76,0L736.41,3.27a2.31,2.31,0,0,0-.17-2.19,2.32,2.32,0,0,0-1.93-1L676.89,0a2.32,2.32,0,0,0-2.11,1.39c0,.06-12.69,29.77-25.6,59.81s-26,60.5-26.69,62a48.18,48.18,0,0,0-4.61,19.47c0,7,2.11,13,6.1,17.28s9.74,6.65,16.49,6.65h138.7a2.31,2.31,0,0,0,2.11-1.38l17.46-39.62a2.3,2.3,0,0,0-2.11-3.23Z"/><path class="cls-1" d="M1035.54,0H976a2.3,2.3,0,0,0-1.49.55L899.76,64,876.12,1.55A2.29,2.29,0,0,0,874,.06l-57.4.09a2.31,2.31,0,0,0-2.14,3.12l39,102.87-25.22,57.24a2.3,2.3,0,0,0,2.11,3.23h57.36a2.31,2.31,0,0,0,2.1-1.37l25.33-57.7L1037,4.05a2.3,2.3,0,0,0-1.5-4Z"/><path class="cls-1" d="M299.16,1.05a2.28,2.28,0,0,0-1.93-1H240a2.29,2.29,0,0,0-2.1,1.37L212.17,59.9,108,60.06,133,3.22A2.3,2.3,0,0,0,130.9,0H73.74a2.28,2.28,0,0,0-2.09,1.37L.19,163.41a2.3,2.3,0,0,0,2.11,3.22l57.19,0a2.3,2.3,0,0,0,2.1-1.37l26.86-61,104.21-.17-26.14,59.3a2.34,2.34,0,0,0,.18,2.19,2.3,2.3,0,0,0,1.93,1h57a2.3,2.3,0,0,0,2.09-1.36l71.61-162A2.29,2.29,0,0,0,299.16,1.05Z"/></g></g></svg>