<svg xmlns="http://www.w3.org/2000/svg" viewBox="0 0 552.02 552.02"><defs><style>.cls-1{fill:#fff;}.cls-2{fill:#004aa3;}.cls-3{fill:#0091ff;}</style></defs><g id="Layer_2" data-name="Layer 2"><g id="Healthy_Content" data-name="Healthy Content"><circle class="cls-1" cx="276.01" cy="276.01" r="276.01"/><g id="logo-dark-light"><path id="H" class="cls-2" d="M411.47,389.15a112.6,112.6,0,0,0,66.28-21.44,221.35,221.35,0,0,1-21.82,36.84l-.1.07L453.7,406l-.28.18-1.36.86-.89.56-1.81,1.1-1,.59c-1.19.7-2.39,1.38-3.59,2l-1.62.89h0c-.53.3-1.07.58-1.62.86l-1.89,1-1.12.56-.88.43-1.09.53-1.83.85q-.66.32-1.32.6c-.87.4-1.75.78-2.63,1.15l-1.43.61-.79.32-1.4.57-.87.34-2.05.79-1,.35-1.3.47c-.87.32-1.74.61-2.61.91l-.17.05-1.25.42-2,.64c-2.49.77-5,1.49-7.55,2.13l-1.84.46q-4.41,1.07-8.91,1.88l-1.2.21-.27,0-1.29.22-1.65.25c-.57.09-1.14.18-1.72.25q-1.91.27-3.81.48l-1.45.16-.88.09-1.56.15-1.21.09-1.68.13-1,.07-2,.11-1.95.09h0l-1.79,0c-.79,0-1.57,0-2.35,0l-1.79,0A154.63,154.63,0,0,1,220.61,315.74H132.39c18.4,90.37,98.31,158.37,194.12,158.37.85,0,1.69,0,2.54,0,.61,0,1.22,0,1.82,0l1.69,0,1.94-.07,1.81-.08.51,0,1.71-.1c1.05-.06,2.09-.13,3.13-.21l2.48-.2,2.49-.24c.62-.06,1.24-.12,1.86-.2l1-.11,1.93-.23.24,0,2.36-.32c1.64-.22,3.26-.47,4.88-.74l2.44-.41c.8-.14,1.61-.29,2.41-.45l2.11-.41.49-.1,1.56-.33,1-.22c1.33-.29,2.66-.6,4-.91l.92-.23,1.84-.46,2-.52,1.57-.43,1.83-.52,2-.56.2-.06,3.2-1c.89-.28,1.79-.56,2.68-.87.61-.19,1.22-.41,1.84-.62h0l1.84-.65.11,0a220.49,220.49,0,0,1-116,32.77c-122.4,0-221.62-99.23-221.62-221.63S154.54,52.2,276.94,52.2A220.64,220.64,0,0,1,409.09,95.89l-.31-.14L407,94.93c-1-.46-2-.9-3.09-1.34L402.36,93c-.27-.12-.55-.23-.82-.33-.66-.28-1.34-.55-2-.82L397.37,91l-.45-.17-1.77-.66c-1-.37-2-.72-2.95-1.07l-2.48-.85-2.37-.78-.12,0-2.5-.79-2.32-.69c-1.12-.34-2.25-.66-3.4-1l-1.48-.41L375.46,84l-1.7-.42q-.51-.14-1-.24l-1.4-.34-.89-.2-1.66-.37-.55-.12-2.07-.43-2.41-.47c-3.21-.62-6.46-1.15-9.73-1.6l-2-.28-.58-.07c-.41,0-.82-.11-1.23-.15s-1-.12-1.56-.18l-2.48-.26L345,78.76q-.68-.08-1.35-.12l-1.46-.13-1-.07-1.6-.11c-.32,0-.63,0-1-.06l-1.63-.09c-.35,0-.7,0-1.05-.05l-1.48-.07L331.9,78l-1.49,0-1.36,0c-.85,0-1.69,0-2.54,0-95.81,0-175.72,68-194.12,158.37h88.22A154.62,154.62,0,0,1,370,121.43h2l1.81,0c1.42,0,2.82.08,4.23.16l1.83.1,1.62.11,1.14.09,1.95.17c1,.08,1.91.18,2.86.3a1.33,1.33,0,0,1,.28,0l1.82.21c.67.08,1.33.17,2,.27l1.67.24,1.11.17c.83.13,1.67.27,2.5.42l1.15.2,2,.39c1,.19,1.94.39,2.9.6,1.32.28,2.64.59,3.95.91l1.24.31.82.21,1.49.39c1,.27,2,.54,3,.84.35.09.69.19,1,.3.69.2,1.38.42,2.07.64l1.29.41c.49.15,1,.31,1.46.48s1.17.39,1.75.6q4.17,1.46,8.23,3.14l1.39.59c.31.12.61.25.92.39l1.24.55c1.69.74,3.35,1.52,5,2.32l1.09.54,1.34.68q2.34,1.19,4.63,2.46l1.28.71.72.42,1.3.76a152.78,152.78,0,0,1,13.76,9.08h0a221.47,221.47,0,0,1,18.8,34.83,113.14,113.14,0,1,0-69.23,202.64Z"/><path id="Teardrop" class="cls-3" d="M382.44,224.12h0a73.39,73.39,0,0,1,103.79,0l49.35,49.35a3.6,3.6,0,0,1,0,5.08L486.23,327.9a73.39,73.39,0,0,1-103.79,0h0A73.38,73.38,0,0,1,382.44,224.12Z"/></g></g></g></svg>