<svg xmlns="http://www.w3.org/2000/svg" viewBox="0 0 706.54 650.66"><defs><style>.cls-1{fill:#004aa3;}.cls-2{fill:#0091ff;}</style></defs><g id="Layer_2" data-name="Layer 2"><g id="Healthy_Content" data-name="Healthy Content"><g id="logo-dark-light"><path id="H" class="cls-1" d="M522.81,494.62a165.34,165.34,0,0,0,97.3-31.47,324.61,324.61,0,0,1-32,54.08l-.15.1c-1,.69-2.07,1.37-3.12,2l-.41.26c-.67.43-1.33.85-2,1.26-.43.28-.87.55-1.31.82l-2.65,1.61-1.46.87c-1.74,1-3.5,2-5.26,3-.79.44-1.58.88-2.38,1.31h0c-.78.43-1.58.85-2.38,1.26s-1.85,1-2.78,1.43l-1.65.83-1.29.63-1.59.77c-.9.42-1.79.85-2.69,1.26l-1.93.88c-1.29.58-2.57,1.14-3.87,1.69l-2.1.89-1.16.48-2.06.83-1.27.5-3,1.16-1.4.52-1.92.68c-1.27.46-2.55.9-3.83,1.33a1.44,1.44,0,0,1-.25.08l-1.83.61-3,.95c-3.66,1.13-7.36,2.18-11.08,3.12l-2.71.68q-6.47,1.56-13.06,2.75l-1.77.31a2.85,2.85,0,0,1-.39.06l-1.91.32-2.41.38c-.84.12-1.68.25-2.53.36-1.86.27-3.72.5-5.59.71l-2.12.23-1.31.14-2.29.21-1.76.14c-.82.07-1.64.13-2.47.18-.49,0-1,.08-1.48.1-.95.07-1.91.12-2.87.17l-2.87.13h0l-2.63.08-3.45.06-2.62,0c-105.16,0-193.62-71.54-219.34-168.6H113.13c27,132.66,144.33,232.49,285,232.49,1.25,0,2.49,0,3.73,0,.9,0,1.79,0,2.67,0l2.49-.06,2.84-.1c.89,0,1.77-.08,2.66-.12l.74,0c.84,0,1.68-.08,2.52-.14,1.54-.09,3.07-.19,4.6-.31l3.63-.3,3.66-.34,2.73-.29c.49-.05,1-.1,1.49-.17l2.82-.34.36,0c1.15-.15,2.31-.3,3.46-.47,2.41-.32,4.79-.69,7.17-1.08l3.57-.61c1.19-.21,2.37-.43,3.55-.66s2.07-.39,3.1-.6l.71-.14,2.29-.49c.51-.1,1-.21,1.52-.33,2-.41,3.91-.87,5.85-1.33l1.35-.33,2.7-.68,3-.77q1.16-.3,2.31-.63l2.67-.76c1-.27,1.93-.54,2.88-.83l.3-.09q2.35-.71,4.7-1.45c1.31-.41,2.62-.83,3.92-1.28.91-.29,1.81-.6,2.71-.91h0l2.69-1,.16,0a323.82,323.82,0,0,1-170.32,48.09C145.65,650.66,0,505,0,325.33S145.65,0,325.33,0a323.88,323.88,0,0,1,194,64.13l-.45-.21-2.66-1.19c-1.51-.68-3-1.33-4.54-2-.74-.31-1.48-.63-2.23-.93-.4-.17-.8-.34-1.2-.49-1-.41-2-.81-3-1.2l-3.17-1.24-.66-.25-2.59-1c-1.44-.53-2.89-1.05-4.34-1.56-1.2-.43-2.42-.84-3.64-1.25s-2.31-.78-3.48-1.15l-.17-.05c-1.22-.4-2.44-.79-3.67-1.16s-2.27-.69-3.4-1c-1.66-.49-3.32-1-5-1.41-.73-.21-1.45-.41-2.18-.6l-3.05-.79-2.49-.62c-.49-.13-1-.25-1.49-.35-.69-.18-1.37-.34-2.07-.5l-1.29-.29-2.44-.55-.81-.17-3-.64c-1.17-.23-2.35-.47-3.53-.69q-7.08-1.35-14.29-2.35c-1-.15-2-.27-3-.4l-.85-.11-1.8-.22c-.76-.1-1.53-.18-2.3-.26l-3.63-.39L425.16,39c-.66-.06-1.32-.13-2-.17s-1.42-.13-2.14-.18c-.5,0-1-.09-1.5-.11-.79-.07-1.57-.12-2.35-.17l-1.41-.08-2.4-.14-1.53-.07c-.73-.05-1.45-.07-2.18-.1-1.21-.05-2.43-.09-3.65-.12-.73,0-1.46,0-2.19,0s-1.33,0-2,0c-1.24,0-2.48,0-3.73,0-140.63,0-257.95,99.83-285,232.49H242.64c25.72-97.06,114.18-168.6,219.34-168.6l2.91,0c.89,0,1.77,0,2.66.06,2.08,0,4.13.12,6.19.23.9,0,1.8.1,2.69.15l2.38.16,1.68.13c.95.07,1.91.16,2.87.25,1.4.13,2.79.27,4.19.44a3,3,0,0,1,.41,0c.89.1,1.78.2,2.68.32s1.95.25,2.92.39l2.45.35,1.63.25c1.23.19,2.46.39,3.68.61l1.69.3,3,.58c1.42.27,2.84.56,4.25.87,1.94.42,3.88.87,5.8,1.34l1.82.46,1.21.31c.73.18,1.45.37,2.18.57,1.45.39,2.9.79,4.35,1.22.51.15,1,.29,1.51.45,1,.3,2,.61,3,.94.63.19,1.27.39,1.9.6l2.13.7,2.58.88q6.11,2.15,12.07,4.62l2,.86c.45.18.9.37,1.34.57.61.27,1.22.53,1.83.81,2.47,1.09,4.91,2.23,7.34,3.41l1.59.8c.67.32,1.32.65,2,1q3.43,1.74,6.79,3.62c.63.33,1.26.69,1.88,1l1.05.61,1.92,1.11A225.2,225.2,0,0,1,596.83,146h0a325,325,0,0,1,27.6,51.13A166.09,166.09,0,1,0,522.81,494.62Z"/><path id="Teardrop" class="cls-2" d="M480.2,252.36h0a107.73,107.73,0,0,1,152.35,0L705,324.81a5.28,5.28,0,0,1,0,7.46l-72.44,72.44a107.73,107.73,0,0,1-152.35,0h0A107.73,107.73,0,0,1,480.2,252.36Z"/></g></g></g></svg>