<svg xmlns="http://www.w3.org/2000/svg" viewBox="0 0 746.78 235.81"><defs><style>.cls-1{fill:#fff;}</style></defs><title>SVG_Asset 1</title><g id="Layer_2" data-name="Layer 2"><g id="Layer_1-2" data-name="Layer 1"><path d="M534.41,175.79H501.73l2.17-7.46c-1.07.72-1.71,1.13-2.33,1.57a39.45,39.45,0,0,1-26.38,7.67,27.2,27.2,0,0,1-8.85-2,19.24,19.24,0,0,1-10.77-11c-.41-1-.74-2.11-1.24-3.52-.78.78-1.43,1.41-2.06,2.07-5.14,5.26-10.89,9.64-17.84,12.27A33,33,0,0,1,417,177.26c-8.77-1.49-14.05-6.83-15.65-15.59-1.34-7.32-.4-14.5,1.67-21.56,1.7-5.75,3.57-11.44,5.19-17.21a31.69,31.69,0,0,0,1.24-7.53c.1-4-2.18-6-6.17-6a10.8,10.8,0,0,0-6.09,1.92c-1.32.89-2.51,2-3.76,3a6.88,6.88,0,0,0-2.22,3.59q-8.37,27.65-16.82,55.27c-.26.83-.55,1.65-.88,2.61H340.83l2.18-7.59L340.43,170c-7.25,5.16-15.21,8-24.23,7.59-10.81-.48-17.84-7.06-19.07-17.84a50.41,50.41,0,0,1,2.2-20.35c1.72-5.75,3.55-11.46,5.19-17.22a26.47,26.47,0,0,0,1.08-6.35c.14-4.46-2.25-6.66-6.69-6.44a12.52,12.52,0,0,0-6.81,2.69,13.45,13.45,0,0,0-5.32,7.36c-5.34,18-10.9,35.95-16.38,53.91-.23.75-.49,1.51-.78,2.39H237l2.11-7.58c-1.08.74-1.79,1.21-2.47,1.7-7.31,5.22-15.32,8.19-24.43,7.72-7.88-.4-14-3.48-17.4-11a4.63,4.63,0,0,0-.58-.75c-.73.64-1.42,1.26-2.11,1.88-5.71,5-12.18,8.5-19.78,9.58a33,33,0,0,1-14.49-.92c-8.77-2.71-13.6-8.88-15.23-17.72-1.26-6.84-.39-13.56,1.6-20.14,5.35-17.66,10.79-35.3,16.2-52.95.16-.53.39-1,.62-1.61h32.6c-.29,1.09-.51,2-.79,2.91Q185.37,111.42,177.9,136c-.62,2.06-1,4.18-1.47,6.29a9.08,9.08,0,0,0-.13,2.39c.19,3.65,2.12,5.49,5.79,5.65a10.06,10.06,0,0,0,5.55-1.24c3.62-2.05,6.36-4.63,7.64-9,5.28-18,10.87-36,16.35-53.91.21-.69.44-1.37.7-2.18H245c-.26,1-.45,1.9-.72,2.77q-9,29.34-18,58.68a28,28,0,0,0-1.18,5.85c-.21,2.74,1.19,3.91,3.86,3.23a10.4,10.4,0,0,0,4.22-2.12,54.05,54.05,0,0,0,6.51-6.68,97.57,97.57,0,0,0,12.41-20.46c1.69-3.68,2.57-7.72,3.77-11.62q4.28-13.86,8.51-27.73c.18-.6.39-1.2.63-1.92h32.65c-.61,2.14-1.19,4.15-1.93,6.77,1.1-.85,1.8-1.37,2.49-1.92a29.46,29.46,0,0,1,19.27-6.79c11.81.17,20.07,7.4,21.9,19.12a45.34,45.34,0,0,1-1.74,20.37c-2.5,8.26-5.08,16.49-7.55,24.76a22.83,22.83,0,0,0-1,5.16c-.14,2.49,1.15,3.62,3.6,3.1a9.53,9.53,0,0,0,4.07-1.86,48.56,48.56,0,0,0,6.27-6.23c5.29-6.48,9.27-13.79,13-21.22a19.63,19.63,0,0,0,1-2.94q5.53-18.11,11.08-36.22c.21-.68.45-1.35.71-2.12h32.68c-.64,2.17-1.22,4.18-1.81,6.19l.35.21c.6-.47,1.21-.93,1.81-1.41a29.68,29.68,0,0,1,19.71-6.91c11.2.24,19.24,6.94,21.4,18a42.69,42.69,0,0,1-1.27,20.63c-2.48,8.34-5.11,16.65-7.61,25a27.83,27.83,0,0,0-1.16,5.61c-.21,2.73,1.2,3.94,3.85,3.27a10.19,10.19,0,0,0,4.22-2.11,56.77,56.77,0,0,0,6.62-6.9,111.45,111.45,0,0,0,12.16-20.07,37.37,37.37,0,0,0,1.9-5.67Q466.89,103,472,86.3c.23-.75.52-1.49.81-2.33h32.68c-.28,1-.5,1.77-.75,2.58q-8.85,29-17.71,58a26.33,26.33,0,0,0-1,4.2c-.55,4,1.44,6.08,5.45,5.94a10.41,10.41,0,0,0,6.4-2.42,46.77,46.77,0,0,0,6.35-6.15,98,98,0,0,0,6.31-9,80.56,80.56,0,0,0,9.82-22.27c2.67-9.63,5.77-19.13,8.7-28.68.2-.68.46-1.34.74-2.14h32.67c-.64,2.18-1.24,4.26-2,6.79,1.47-1.13,2.52-2,3.61-2.77a28.51,28.51,0,0,1,21.92-5.61c9,1.38,14.68,6.63,17.29,15.22,2.19,7.18,1.73,14.44-.27,21.54-2.51,8.93-5.36,17.75-8,26.63a30.72,30.72,0,0,0-1.15,4.89c-.41,3.24,1.37,4.73,4.5,3.74a10,10,0,0,0,3.35-1.8,32,32,0,0,0,5-4.81c2.81-3.67,5.43-7.51,8-11.38a10.26,10.26,0,0,0,1.13-3.6c3-15.45,9.84-28.83,21.58-39.48a42.41,42.41,0,0,1,20.4-10.59,32.6,32.6,0,0,1,14.51.2,24,24,0,0,1,14.31,9.82c.45.65.88,1.31,1.6,2.37L691.78,84h32.74c-8.45,27.57-16.83,55-25.21,82.32C715.7,156,725.75,140.75,734,124.07c3.6-.44,9.57,2.29,12.79,5.85a6.5,6.5,0,0,1-.24.81c-5.83,12.84-13.13,24.7-23,34.85A106.79,106.79,0,0,1,695.1,186.2a5.23,5.23,0,0,0-3,3.4c-3.08,10-7.32,19.45-13.83,27.75s-14.69,14.43-25.13,17a40,40,0,0,1-22-.25c-8-2.52-13.52-7.6-15-16.12a21.86,21.86,0,0,1,7.19-21,43.48,43.48,0,0,1,17.43-9.27c5.82-1.71,11.77-2.94,17.67-4.37.92-.23,1.87-.4,3.06-.66,1.07-3.46,2.16-7,3.4-11-1.09.55-1.77.88-2.43,1.24a36,36,0,0,1-24.08,4.25c-9.36-1.64-16-6.95-20-15.48-.41-.87-.78-1.75-1.25-2.79-1.4,1.51-2.67,2.94-4,4.3-5.84,6-12.44,10.76-20.59,13.14A34,34,0,0,1,579,177.46c-9.37-1.05-15.42-7.11-16.9-16.59a46.84,46.84,0,0,1,1.74-20.38c1.69-5.84,3.6-11.6,5.25-17.45a31.2,31.2,0,0,0,1.26-7.28c.16-4.47-2.27-6.72-6.73-6.27a15.14,15.14,0,0,0-5.18,1.68,24.77,24.77,0,0,0-3.82,2.87,7.76,7.76,0,0,0-2.6,4.16q-8.35,27.66-16.82,55.27C535,174.23,534.69,175,534.41,175.79ZM649.79,139.5a38.39,38.39,0,0,0,1,5c1.56,4.73,5.66,6.79,10.45,5.44a15.93,15.93,0,0,0,6.38-3.69,33,33,0,0,0,10.1-17.85,17.24,17.24,0,0,0-.48-10.15c-1.92-4.92-6.6-7-11.49-5.09a15.35,15.35,0,0,0-4.12,2.37C654.33,121.66,650.65,129.64,649.79,139.5Zm6.36,60.25c-1.73.38-2.9.6-4,.9A60,60,0,0,0,639.47,205a12.59,12.59,0,0,0-5.29,4.34c-2.39,3.87-.22,8.19,4.29,8.56a11,11,0,0,0,8-2.55C651.38,211.37,653.85,205.9,656.15,199.75Z"/><path d="M137.07,177.69,148.85,206a46.18,46.18,0,0,1-13.24,5.86,42.66,42.66,0,0,1-19.23.89,25.94,25.94,0,0,1-17.13-11.32,54.32,54.32,0,0,1-7.5-17.81c-1.9-7.68-3.44-15.44-5.33-23.12-1.07-4.34-2.46-8.6-3.82-12.85a27.17,27.17,0,0,0-2-4.35c-1.46-2.77-3.36-4.91-6.72-5.58a46.91,46.91,0,0,1-6.72-2.38l-12.4,40.45H20.9C31.83,140,42.69,104.4,53.67,68.46c-1.05.27-1.64.37-2.2.58a31.42,31.42,0,0,0-12.12,7.52A25.31,25.31,0,0,0,32.17,92.4,39.22,39.22,0,0,0,34.86,110c.25.67.51,1.34.74,2a3,3,0,0,1,0,.72L12.28,131.58c-.71-.79-1.37-1.46-2-2.19A45.11,45.11,0,0,1,.55,106.53C-2.33,84.59,6.27,67.88,24.23,55.64A75.28,75.28,0,0,1,52.77,44.26a120.89,120.89,0,0,1,51.64.83,68.23,68.23,0,0,1,26.18,12c9,6.93,15.22,15.75,17.2,27.09,2.17,12.5-.67,24-7.83,34.41-7.71,11.17-18.47,17.91-31.6,21-.46.11-.92.25-1.37.39-.06,0-.1.13-.16.22,1.2,1.84,2.52,3.63,3.6,5.55a62.88,62.88,0,0,1,5.27,13.35c1,3.3,1.82,6.63,2.85,9.9a28.39,28.39,0,0,0,2,4.86c3.15,5.82,7.81,7.44,13.91,4.92C135.3,178.46,136.09,178.11,137.07,177.69ZM73.76,113.61a12.66,12.66,0,0,0,1.55.57,44.76,44.76,0,0,0,15.22,1c12-1.32,20.46-9.18,22.1-21C114,84.34,110.36,76,101.4,70.94a40.07,40.07,0,0,0-11.92-4.21,7.44,7.44,0,0,0-1.42,0C83.29,82.36,78.56,97.85,73.76,113.61Z"/><path d="M389.57,57.1a7.62,7.62,0,0,0,5.34,4.25,15.64,15.64,0,0,0,8.76-.21,20.4,20.4,0,0,0,8.64-5,28.4,28.4,0,0,0,8.26-13c1.45-5.15,3.12-10.24,4.69-15.36.19-.6.41-1.2.64-1.87h16.19l-.48,2.95,2.19-1.48a14.55,14.55,0,0,1,8.13-2.48c6.24,0,10.61,3.91,11.31,10.13a22.83,22.83,0,0,1-.81,9.26c-1.26,4.13-2.53,8.25-3.77,12.38a13.63,13.63,0,0,0-.62,2.8c-.12,1.55.83,2.26,2.28,1.69a7.64,7.64,0,0,0,2.4-1.52,20.79,20.79,0,0,0,2.86-3.22,6.8,6.8,0,0,0,1.15-2.78c.7-4.44,2.88-7.59,7.34-8.81a6.23,6.23,0,0,0,4.4-4c2.1-5.35,4.24-10.69,6.37-16,.32-.81.6-1.64,1-2.7,3.95.82,7.85,1.56,11.7,2.5a3.28,3.28,0,0,1,1.73,1.81c2.39,5.48,4.7,11,7,16.54a40,40,0,0,1,2.91,11.58,19,19,0,0,1-1.72,10.52c-2.24,4.51-6.25,7-11.16,7.84-9.76,1.59-18.13-1.41-25.22-8.18a14.18,14.18,0,0,1-1.15-1.44L468,65.33c-3.51,3.65-7.5,6.52-12.62,7.33a18.29,18.29,0,0,1-5,.13c-4.58-.55-7.45-3.49-8.26-8.06a23,23,0,0,1,.82-10.43c.86-3,1.81-6,2.66-9a14.16,14.16,0,0,0,.61-3.28c.09-2.42-1.17-3.5-3.6-3.28a7.09,7.09,0,0,0-5.7,4.81Q433,56.31,429.12,69c-.27.92-.58,1.82-.91,2.84H411.84l1.43-5.12-2.34,1.46a32,32,0,0,1-26.48,3.7A18.23,18.23,0,0,1,373,63.05c-.16-.27-.34-.54-.52-.8a2.38,2.38,0,0,0-.26-.24c-1,1.13-2,2.29-3,3.38-3.44,3.6-7.36,6.42-12.4,7.24a19.12,19.12,0,0,1-5,.18c-5-.55-8.08-3.93-8.55-9.12a26,26,0,0,1,1.16-10.18c.81-2.59,1.62-5.19,2.36-7.8a16.47,16.47,0,0,0,.68-3.52c.17-2.85-1.67-4.22-4.34-3.15a7.63,7.63,0,0,0-4.7,5.08c-2.51,8.34-5.07,16.67-7.61,25-.23.75-.49,1.49-.75,2.31H313.71c.24-.89.42-1.64.65-2.38,2.21-7.26,4.46-14.51,6.63-21.78a22.53,22.53,0,0,0,1-4.9c.2-3.18-2-4.55-4.87-3.11a7.79,7.79,0,0,0-4.23,4.93c-2.47,8.26-5,16.5-7.58,24.75-.23.76-.47,1.52-.75,2.43H288.2l2.86-9.72c-2.74.33-5.26.53-7.73,1A5,5,0,0,0,281,64a27.76,27.76,0,0,1-21.71,8.35,25.61,25.61,0,0,1-7.69-1.61c-9.47-3.61-13.52-12.37-12.28-21.28A28.48,28.48,0,0,1,268.69,25a24.34,24.34,0,0,1,8.62,1.88,19,19,0,0,1,11.83,19.29c-.2,2.6-.8,5.17-1.25,7.92a10.79,10.79,0,0,0,1.58-.66A14.91,14.91,0,0,0,296.21,45c1.76-5.56,3.44-11.15,5.16-16.72.23-.76.49-1.5.74-2.28h16.22c-.2,1.05-.38,2-.63,3.22,1-.58,1.71-1,2.42-1.43A18,18,0,0,1,330.38,25c3.91.21,6.14,1.64,8.8,5.69l2-1.54A18.14,18.14,0,0,1,353.61,25c7.34.32,11.86,5.24,11.41,12.55a29,29,0,0,1-1.1,6.11c-1.25,4.46-2.7,8.87-4,13.31A11,11,0,0,0,359.4,60a1.26,1.26,0,0,0,1.78,1.31,7.21,7.21,0,0,0,2.5-1.34c2.87-2.4,4.8-5.54,6.62-8.75a5.26,5.26,0,0,0,.38-1.85c1.12-7.67,4.37-14.21,10.53-19a23.74,23.74,0,0,1,21.93-4.44c5.61,1.55,9.83,4.9,11,10.86s-1.37,10.79-6,14.53c-4,3.27-8.83,4.71-13.91,5.34C392.74,56.8,391.24,56.93,389.57,57.1ZM272.13,44.43c-.06-4.25-3.29-6.86-7.28-5.73a11.11,11.11,0,0,0-3.79,1.91,14.48,14.48,0,0,0-5.64,12.81c.32,4.87,4.78,7.12,9.11,4.69C261.79,51,264,47,272.13,44.43Zm210.78,3.42c3,4.38,2.45,8.61-1.06,12.54a5.74,5.74,0,0,0,6.22,1.81A5.39,5.39,0,0,0,492,57.76a12.54,12.54,0,0,0-.26-6.63c-1.18-3.65-2.51-7.23-3.81-10.84a10.84,10.84,0,0,0-.83-1.5C485.64,41.93,484.3,44.83,482.91,47.85Zm-94.67,1.43a17,17,0,0,0,7.66-2.1,7.2,7.2,0,0,0,3.22-3.41,3.42,3.42,0,0,0-.36-3.81,3.13,3.13,0,0,0-3.5-.82,7.34,7.34,0,0,0-2.16.94C390.06,42.26,388.78,45.39,388.24,49.28Z"/><path d="M232.27,19.7l-2.13-.43a9.62,9.62,0,0,1-7.86-10.68A9.61,9.61,0,0,1,231.92,0c5.86,0,10,2.84,12.46,8.16a22.92,22.92,0,0,1,1.67,12,46.4,46.4,0,0,1-3.56,13.64,88.06,88.06,0,0,1-27.87,36,7.83,7.83,0,0,1-5.49,1.81c-3.2-.16-6.4-.06-9.6-.08a2.8,2.8,0,0,1-.66-.22V40.34l-.51-.16q-8.81,15.57-17.64,31.24H163.06c0-.85,0-1.62,0-2.39q.56-17.87,1.11-35.73a21.89,21.89,0,0,0-1.39-9.41c-1.17-2.74-3.15-4.35-6.26-4.37a7,7,0,0,0-7.29,6.73c-.14,4,2.93,7.66,6.76,7.45.31,0,.62,0,1.17.07,1.07,5,2.15,10.09,3.28,15.39a21.25,21.25,0,0,1-11.65,0A19.53,19.53,0,0,1,135,30.9a22.28,22.28,0,0,1,22.8-23.43,34.6,34.6,0,0,1,6.42.65A18.23,18.23,0,0,1,178.12,19.7a31.61,31.61,0,0,1,2.32,11.94c0,5.27-.24,10.55-.36,15.82,0,.88,0,1.76,0,2.62.11,0,.18.08.25.07a.26.26,0,0,0,.2-.08l17.9-31.8h16.82V54.69c.25-.1.58-.14.74-.32,6.67-7.36,12.09-15.5,15.28-25a21.83,21.83,0,0,0,1.28-8.48A8.92,8.92,0,0,0,232.27,19.7Z"/><path d="M472.14,28.7a20.63,20.63,0,0,1-1.36-2.28,4,4,0,0,1,.74-4.45,3.81,3.81,0,0,1,4.13-1.21,4,4,0,0,1,3,3.41,6.34,6.34,0,0,1-2,5.64,19.42,19.42,0,0,1-8.89,4.8l-1.15-2.09Z"/><path class="cls-1" d="M649.79,139.5c.86-9.86,4.54-17.84,11.85-24a15.35,15.35,0,0,1,4.12-2.37c4.89-1.94,9.57.17,11.49,5.09a17.24,17.24,0,0,1,.48,10.15,33,33,0,0,1-10.1,17.85,15.93,15.93,0,0,1-6.38,3.69c-4.79,1.35-8.89-.71-10.45-5.44A38.39,38.39,0,0,1,649.79,139.5Z"/><path class="cls-1" d="M656.15,199.75c-2.3,6.15-4.77,11.62-9.68,15.57a11,11,0,0,1-8,2.55c-4.51-.37-6.68-4.69-4.29-8.56a12.59,12.59,0,0,1,5.29-4.34,60,60,0,0,1,12.63-4.32C653.25,200.35,654.42,200.13,656.15,199.75Z"/><path class="cls-1" d="M73.76,113.61c4.8-15.76,9.53-31.25,14.3-46.89a7.44,7.44,0,0,1,1.42,0,40.07,40.07,0,0,1,11.92,4.21c9,5.08,12.59,13.4,11.23,23.24-1.64,11.87-10.13,19.73-22.1,21a44.76,44.76,0,0,1-15.22-1A12.66,12.66,0,0,1,73.76,113.61Z"/><path class="cls-1" d="M272.13,44.43C264,47,261.79,51,264.53,58.11c-4.33,2.43-8.79.18-9.11-4.69a14.48,14.48,0,0,1,5.64-12.81,11.11,11.11,0,0,1,3.79-1.91C268.84,37.57,272.07,40.18,272.13,44.43Z"/><path class="cls-1" d="M482.91,47.85c1.39-3,2.73-5.92,4.17-9.06a10.84,10.84,0,0,1,.83,1.5c1.3,3.61,2.63,7.19,3.81,10.84a12.54,12.54,0,0,1,.26,6.63,5.39,5.39,0,0,1-3.91,4.44,5.74,5.74,0,0,1-6.22-1.81C485.36,56.46,486,52.23,482.91,47.85Z"/><path class="cls-1" d="M388.24,49.28c.54-3.89,1.82-7,4.86-9.2a7.34,7.34,0,0,1,2.16-.94,3.13,3.13,0,0,1,3.5.82,3.42,3.42,0,0,1,.36,3.81,7.2,7.2,0,0,1-3.22,3.41A17,17,0,0,1,388.24,49.28Z"/></g></g></svg>